<?xml version="1.0" encoding="UTF-8" standalone="no"?>
<svg
   fill="#000000"
   viewBox="0 0 32 32"
   width="32"
   height="32"
   version="1.1"
   id="svg782"
   sodipodi:docname="user_icon_light.svg"
   inkscape:version="1.3 (0e150ed6c4, 2023-07-21)"
   xmlns:inkscape="http://www.inkscape.org/namespaces/inkscape"
   xmlns:sodipodi="http://sodipodi.sourceforge.net/DTD/sodipodi-0.dtd"
   xmlns="http://www.w3.org/2000/svg"
   xmlns:svg="http://www.w3.org/2000/svg">
  <defs
     id="defs786" />
  <sodipodi:namedview
     id="namedview784"
     pagecolor="#ffffff"
     bordercolor="#000000"
     borderopacity="0.25"
     inkscape:showpageshadow="2"
     inkscape:pageopacity="0.0"
     inkscape:pagecheckerboard="0"
     inkscape:deskcolor="#d1d1d1"
     showgrid="false"
     showborder="false"
     inkscape:zoom="11.8"
     inkscape:cx="6.0169492"
     inkscape:cy="10.127119"
     inkscape:window-width="2256"
     inkscape:window-height="1470"
     inkscape:window-x="-11"
     inkscape:window-y="-11"
     inkscape:window-maximized="1"
     inkscape:current-layer="svg782" />
  <path
     d="m 7.5435058,9.455882 c 0,4.669118 3.7867652,8.455882 8.4558822,8.455882 4.669118,0 8.455883,-3.786764 8.455883,-8.455882 C 24.455271,4.786765 20.668506,1 15.999388,1 11.330271,1 7.5435058,4.786765 7.5435058,9.455882 Z m 14.7058822,0 c 0,3.455882 -2.794117,6.250001 -6.25,6.250001 -3.455882,0 -6.2499992,-2.794119 -6.2499992,-6.250001 0,-3.455882 2.7941172,-6.2499997 6.2499992,-6.2499997 3.455883,0 6.25,2.7941177 6.25,6.2499997 z M 1.8449767,30.852941 C 2.0288003,30.963236 2.2126238,31 2.3964474,31 c 0.367647,0 0.7720587,-0.183823 0.9558824,-0.55147 2.573529,-4.558824 7.4264712,-7.389707 12.6470582,-7.389707 5.220589,0 10.073529,2.830883 12.683823,7.389707 0.294119,0.514706 0.955883,0.698529 1.507353,0.404411 0.514707,-0.294118 0.69853,-0.955882 0.404413,-1.507354 C 27.617036,24.125 22.0288,20.852941 15.999388,20.852941 c -6.0294112,0 -11.6176462,3.272059 -14.5955877,8.492646 -0.2941177,0.514707 -0.1102942,1.213236 0.4411764,1.507354 z"
     id="path780"
     style="stroke-width:0;stroke-dasharray:none;fill:#003366;fill-opacity:1;stroke:#003366;stroke-opacity:1" />
</svg>
